<svg xmlns="http://www.w3.org/2000/svg" viewBox="0 0 24 24" fill="#1976d2" width="48" height="48">
  <path d="M15.5 12c0 .83-.67 1.5-1.5 1.5s-1.5-.67-1.5-1.5.67-1.5 1.5-1.5 1.5.67 1.5 1.5zm-4-3h-2v2h-2v2h2v2h2v-2h2v-2h-2V9zM23 15c0 3.31-2.69 6-6 6h-2.59c-1.83 0-3.59-.86-4.71-2.31l-1.96-2.52c-.2-.26-.54-.41-.89-.41s-.69.15-.89.41l-1.96 2.52C3.87 20.14 2.11 21 .28 21H0v-2h.28c1.22 0 2.39-.57 3.14-1.54l1.96-2.52c.59-.76 1.52-1.19 2.47-1.19s1.88.43 2.47 1.19l1.96 2.52c.75.97 1.92 1.54 3.14 1.54H17c2.21 0 4-1.79 4-4s-1.79-4-4-4h-3V9h3c3.31 0 6 2.69 6 6z"/>
</svg>
